<?xml version="1.0" encoding="utf-8"?>
<!-- Generator: Adobe Illustrator 18.1.1, SVG Export Plug-In . SVG Version: 6.00 Build 0)  -->
<svg version="1.1" id="图层_1" xmlns="http://www.w3.org/2000/svg" xmlns:xlink="http://www.w3.org/1999/xlink" x="0px" y="0px"
	 viewBox="0 0 30 25" enable-background="new 0 0 30 25" xml:space="preserve">
<g>
	<path fill-rule="evenodd" clip-rule="evenodd" fill="#FFFFFF" d="M30,6.6c0-1.9-0.6-4-1.5-4.4C25.9,1,19.4,0,15,0
		C10.6,0,4.1,1,1.5,2.1c-2,0.9-2.1,8.3,0.3,7.7c0,0,5.8-1.3,5.8-1.3c0.7-0.2,1.1-0.9,1-1.8L8.3,5c0.5-0.1,1.1-0.2,1.6-0.2l-0.1,2
		c0,0.6-0.3,1.1-0.7,1.4c-2,1.3-7.9,5.3-7.9,7v6.4C1.1,23.4,2.4,25,4,25h11h11c1.6,0,2.9-1.6,2.9-3.5v-6.4c0-1.6-5.9-5.7-7.9-7
		c-0.4-0.3-0.7-0.8-0.7-1.4l-0.1-2c0.5,0.1,1.1,0.2,1.6,0.2l-0.3,1.8c-0.1,0.8,0.3,1.6,1,1.8c0,0,5.7,1.3,5.8,1.3
		C29.5,10.2,30,8.5,30,6.6z M15,4.2c0.5,0,2.6,0.1,3.2,0.2c0,0-0.1,0.8-0.1,1.6c-0.1,0.8-0.6,1.3-1.2,1.3H15h-1.9
		c-0.6,0-1.2-0.6-1.2-1.3l-0.1-1.6C13,4.3,14.1,4.2,15,4.2z"/>
	<path fill-rule="evenodd" clip-rule="evenodd" fill="#FFFFFF" d="M15,13c2.2,0,4,1.8,4,4s-1.8,4-4,4c-2.2,0-4-1.8-4-4
		S12.8,13,15,13z"/>
</g>
</svg>
